#!OML:ASF I:\Actors\actors\Patient Classification 2\Patient 1\Session 1\actor1.ASF
:FULLY-SPECIFIED
:DEGREES
186
root -0.554086 18.7121 5.22756 9.21118 7.75479 -2.88927
lowerback 20.9144 -0.491072 3.14799
upperback 1.74895 0.176185 0.767373
thorax -9.80646 -0.0277678 -1.00748
lowerneck -23.6147 -3.12299 -1.93587
upperneck 6.31158 -4.02605 3.57904
head 5.75929 -1.70496 1.00481
rclavicle 1.87914e-015 -5.89521e-015
rhumerus -4.25534 12.2256 -76.2473
rradius 134.431
rwrist 23.1724
rhand 3.39706 -62.0505
rfingers 7.12502
rthumb 28.8399 -89.8417
lclavicle 1.87914e-015 -5.89521e-015
lhumerus -4.80888 -31.0255 87.7358
lradius 120.591
lwrist -11.1351
lhand 16.6613 3.25098
lfingers 7.12502
lthumb 41.4131 28.0346
rfemur -3.13852 -5.41052 17.3597
rtibia 1.61866
rfoot -17.8162 -16.134
rtoes -4.49582
lfemur -23.5133 -4.50326 -10.0993
ltibia 30.6239
lfoot -16.3637 4.26945
ltoes -56.3884
187
root -0.557759 18.7403 5.22117 9.72173 7.59765 -2.69725
lowerback 20.9764 -0.396449 3.27233
upperback 1.56477 0.305499 0.486211
thorax -10.0382 0.0151007 -1.4248
lowerneck -23.8855 -3.26552 -2.10416
upperneck 6.45971 -4.21178 3.93419
head 5.8659 -1.7641 1.1211
rclavicle 4.2366e-015 -2.56432e-014
rhumerus -0.347717 11.0843 -75.1627
rradius 133.628
rwrist 22.8259
rhand 3.13635 -62.1279
rfingers 7.12502
rthumb 28.5908 -89.9612
lclavicle 4.2366e-015 -2.56432e-014
lhumerus -4.42844 -31.4105 87.1606
lradius 121.321
lwrist -10.9379
lhand 17.0578 3.13178
lfingers 7.12502
lthumb 41.785 27.7935
rfemur -2.90795 -5.25702 17.1655
rtibia -7.15625e-015
rfoot -17.1815 -16.7342
rtoes -3.7871
lfemur -23.8171 -4.40366 -10.2629
ltibia 30.2067
lfoot -15.9792 4.41298
ltoes -56.2044
188
root -0.559609 18.7661 5.21315 10.3029 7.22959 -2.4831
lowerback 20.7836 -0.224726 3.03856
upperback 1.4994 0.456186 0.363909
thorax -9.99823 0.0929492 -1.46846
lowerneck -23.8283 -3.34367 -2.28082
upperneck 6.18601 -4.27643 4.10978
head 5.77895 -1.78921 1.20012
rclavicle 3.91357e-015 1.03617e-014
rhumerus 3.57123 10.0276 -73.7098
rradius 132.061
rwrist 22.2393
rhand 3.04067 -61.9536
rfingers 7.12502
rthumb 28.4994 -89.8024
lclavicle 3.91357e-015 1.03617e-014
lhumerus -3.81486 -31.4831 86.6242
lradius 122.037
lwrist -10.6391
lhand 17.3801 3.12632
lfingers 7.12502
lthumb 42.0871 27.6871
rfemur -3.59747 -4.90593 16.9325
rtibia 3.97569e-015
rfoot -17.1249 -16.826
rtoes -3.49647
lfemur -24.1401 -4.09637 -10.4918
ltibia 29.7784
lfoot -15.6742 4.55766
ltoes -56.0286
189
root -0.559176 18.7889 5.20784 10.7167 6.71458 -2.21541
lowerback 20.6192 0.000396633 2.4788
upperback 1.57184 0.614673 0.364959
thorax -9.82495 0.195225 -1.19159
lowerneck -23.4653 -3.41819 -2.59447
upperneck 5.56448 -4.28643 4.26299
head 5.53496 -1.80143 1.30447
rclavicle 7.26806e-015 -3.81418e-015
rhumerus 7.9585 9.04877 -72.3392
rradius 129.292
rwrist 21.6731
rhand 1.16427 -60.6102
rfingers 7.12502
rthumb 26.7051 -88.7459
lclavicle 7.26806e-015 -3.81418e-015
lhumerus -2.96522 -31.2734 86.1385
lradius 122.615
lwrist -10.4093
lhand 17.54 2.93378
lfingers 7.12502
lthumb 42.2369 27.444
rfemur -4.09523 -4.41718 16.5881
rtibia 7.95139e-016
rfoot -17.0715 -16.91
rtoes -3.46228
lfemur -24.2249 -3.73533 -10.8219
ltibia 29.3738
lfoot -15.4709 4.7328
ltoes -56
190
root -0.561852 18.8041 5.19822 10.7939 6.16953 -1.94485
lowerback 21.0427 0.246531 2.39153
upperback 1.61259 0.894596 0.0492939
thorax -9.99726 0.320497 -1.57362
lowerneck -23.3989 -3.76094 -3.13711
upperneck 5.29179 -4.64265 4.82501
head 5.47814 -1.94599 1.53183
rclavicle 8.07563e-015 -6.80837e-015
rhumerus 11.9328 7.94224 -71.785
rradius 125.632
rwrist 21.0569
rhand 0.406699 -60.596
rfingers 7.12502
rthumb 25.9799 -88.8402
lclavicle 8.07563e-015 -6.80837e-015
lhumerus -1.8584 -31.5497 85.4048
lradius 122.932
lwrist -10.2402
lhand 17.6403 2.30076
lfingers 7.12502
lthumb 42.3309 26.779
rfemur -4.22877 -3.88077 16.2222
rtibia 5.56597e-015
rfoot -17.1404 -16.9406
rtoes -3.41593
lfemur -23.9873 -3.45659 -11.1521
ltibia 29.0357
lfoot -15.3604 4.91665
ltoes -56.0743
191
root -0.563127 18.8132 5.19078 10.7097 5.56181 -1.72769
lowerback 21.7459 0.443044 2.59148
upperback 1.53583 1.16334 -0.46108
thorax -10.4422 0.414875 -2.34448
lowerneck -23.4071 -4.12154 -3.68163
upperneck 5.41249 -5.05036 5.49866
head 5.56969 -2.10102 1.78611
rclavicle 1.44119e-015 -4.96962e-016
rhumerus 14.6709 7.08178 -71.9911
rradius 120.795
rwrist 22.4346
rhand 0.699294 -60.6425
rfingers 7.12502
rthumb 26.26 -88.8453
lclavicle 1.44119e-015 -4.96962e-016
lhumerus -0.719041 -32 84.5655
lradius 122.923
lwrist -10.0756
lhand 17.4711 1.50885
lfingers 7.12502
lthumb 42.1723 26.0409
rfemur -4.20641 -3.26155 15.8996
rtibia 1.35174e-014
rfoot -17.2392 -16.9711
rtoes -3.70288
lfemur -23.5897 -3.13936 -11.4282
ltibia 28.752
lfoot -15.3389 5.02041
ltoes -56.1557
192
root -0.562627 18.8159 5.18903 10.636 4.92312 -1.54917
lowerback 22.2021 0.661838 2.76776
upperback 1.42438 1.45068 -0.94715
thorax -10.7837 0.517655 -3.08648
lowerneck -23.4128 -4.45405 -4.23568
upperneck 5.78004 -5.41121 6.00165
head 5.73757 -2.24433 1.99059
rclavicle -1.59028e-015 1.68967e-015
rhumerus 16.175 6.75081 -72.5052
rradius 115.379
rwrist 21.6742
rhand -0.1515 -61.8325
rfingers 7.12502
rthumb 25.4453 90.1541
lclavicle -1.59028e-015 1.68967e-015
lhumerus 0.564475 -32.4258 83.9005
lradius 122.444
lwrist -10.1128
lhand 17.0974 0.701679
lfingers 7.12502
lthumb 41.8221 25.3511
rfemur -4.20902 -2.60479 15.616
rtibia 1.03368e-014
rfoot -17.288 -17.0474
rtoes -4.03237
lfemur -23.2398 -2.79107 -11.6595
ltibia 28.5784
lfoot -15.3243 5.0611
ltoes -56.2294
